# xmcd
#
# Track frame offsets:
#	150
#	14965
#	27973
#	40042
#	49432
#	63608
#	77652
#	91936
#	106633
#	120944
#	135882
#	148499
#	163964
#	178872
#	193403
#	205738
#	219153
#	231854
#	245721
#	259319
#	272411
#	286503
#	299514
#	313124
#
# Disc length: 4321
#
# Revision: 2
# Processed by: cddbd v1.5.1PL0 Copyright (c) Steve Scherf et al.
# Submitted via: CDmax 1.8
# Normalized: r1:TDELIM( - )
#
DISCID=6b10df18
DTITLE=Various Artist - Ladies Sing The Blues CD2
DYEAR=1900
DGENRE=Blues
TTITLE0=Billie Holiday - Fine And Mellow
TTITLE1=Billie Holiday - St. Louis Blues
TTITLE2=Sister Rosetta Tharpe - Trouble In Mind
TTITLE3=Sister Rosetta Tharpe - That's All
TTITLE4=Ida Cox - Death Letter Blues
TTITLE5=Victoria Spivey - Dirty Tee Bee Blues
TTITLE6=Ma Rainey - See See Rider Blues
TTITLE7=Bessie Smith - Careless Love Blues
TTITLE8=Bessie Smith - Monkey Blues
TTITLE9=Bessie Smith - Back Water Blues
TTITLE10=Alberta Hunter - Nobody Knows The Way I Feel Dis Mornin'
TTITLE11=Lizzie Miles - My Man O' War
TTITLE12=Rosa Henderson - Can't Be Bothered With No Sheik
TTITLE13=Bertha Chippie - Some Cold Rainy Day
TTITLE14=Memphis Minnie - Me And My Chauffeur Blues
TTITLE15=Memphis Minnie - This Is Your Last Chance
TTITLE16=Memphis Minnie - I Am Sailin'
TTITLE17=Helen Humes - Gonna Buy Me A Telephone
TTITLE18=Dinah Washington - Salty Papa Blues
TTITLE19=Dinah Washington - Rich Man's Blues
TTITLE20=Ella Johnson - That's The Stuff You Gotta Watch
TTITLE21=Julia Lee - Snatch And Grab It
TTITLE22=Nellie Lutcher - He's A Real Gone Guy
TTITLE23=Peggy Lee - Why Don't You Do Right
EXTD=
EXTT0=
EXTT1=
EXTT2=
EXTT3=
EXTT4=
EXTT5=
EXTT6=
EXTT7=
EXTT8=
EXTT9=
EXTT10=
EXTT11=
EXTT12=
EXTT13=
EXTT14=
EXTT15=
EXTT16=
EXTT17=
EXTT18=
EXTT19=
EXTT20=
EXTT21=
EXTT22=
EXTT23=
PLAYORDER=
